<svg id="Слой_1" xmlns="http://www.w3.org/2000/svg" width="32" height="33" viewBox="-179.6 184.3 32 33"><style>.st0{fill:#fff}.st1{fill:#fcfbfa}.st2{fill:#252526}.st3{fill:#e0e0e0}.st4{fill:#56555c}</style><path class="st0" d="M-163.6 217.3c-1.8 0-3.5-.4-5.1-1-1.6-.7-3-1.6-4.1-2.9-1.2-1.2-2.1-2.6-2.7-4.2-.2-.6-.4-1.2-.6-1.9h-.1l-.1-1c-1.2-.5-2.1-1.7-2.4-2.8-.4-1.4-.8-3.5-.9-5.4 0-1.5.8-2.9 2.2-3.5.9-.4 2.2-.8 3.7-1 1-2.1 2.1-4 3.3-5.4 2.1-2.5 4.4-3.8 6.8-3.8 2.4 0 4.7 1.3 6.8 3.8 1.2 1.4 2.3 3.2 3.2 5.4 1.5.3 2.8.6 3.8 1 1.4.6 2.2 2 2.2 3.5-.1 2.2-.6 4.6-.9 5.5-.3 1.2-1.2 2.4-2.4 2.8l-.1 1h-.1c-.1.6-.3 1.3-.6 1.9-.6 1.6-1.5 3-2.7 4.2-1.2 1.2-2.6 2.2-4.1 2.9-1.6.6-3.3.9-5.1.9z"/><path class="st1" d="M-163.7 186.8c5.7 0 10.3 12.2 10.3 17.9 0 5.7-4.6 10.3-10.3 10.3-5.7 0-10.3-4.6-10.3-10.3 0-5.7 4.6-17.9 10.3-17.9z"/><path class="st2" d="M-150.6 196.6l-4.2 1.5s.6 2 .7 2l4.2-.5-.7-3zm-26.1 0l4.2 1.5s-.6 2-.7 2l-4.2-.5.7-3z"/><path class="st3" d="M-168 196.3c1.1 0 1.3.9 1.3 1.1.1.6.2 1.4.3 2.2 0 .2 0 .4-.1.6-.1-.5-.1-1-.2-1.5 0-.2-.3-1.1-1.3-1.1-.6 0-2.7.1-4.7.4.1-.5.3-.9.5-1.4 1.8-.3 3.6-.4 4.2-.3zm14.6 7.9c-3.7-.2-6.9-1.4-7.6-1.8-.6-.3-1.3-.8-1.5-2.2-.1 1.6.2 3 1.6 3.7.1.1 2.9 1.4 7.4 1.7v-.9c.1-.2.1-.4.1-.5zm-20.5 0c3.7-.2 6.9-1.4 7.6-1.8.6-.3 1.3-.8 1.5-2.2.1 1.6-.2 3-1.6 3.7-.1.1-2.9 1.4-7.4 1.7v-.9c-.1-.2-.1-.4-.1-.5zm14.5-7.9c-1.1 0-1.3.9-1.3 1.1-.1.6-.2 1.4-.3 2.2 0 .2 0 .4.1.6.1-.5.1-1 .2-1.5 0-.2.3-1.1 1.3-1.1.6 0 2.7.1 4.7.4-.1-.5-.3-.9-.5-1.4-1.8-.3-3.6-.4-4.2-.3z"/><path class="st4" d="M-172.7 195.1c1-2.4 2.2-4.6 3.5-6.1 1.7-2.1 3.6-3.2 5.5-3.2s3.7 1.1 5.5 3.2c1.3 1.6 2.5 3.7 3.5 6.1v.1h-.1c-.4 0-.6-.1-1-.1-1.1-2.7-3.1-6.1-5.6-7.6-.8-.4-1.5-.7-2.3-.7s-1.5.2-2.3.7c-2.5 1.4-4.4 4.9-5.6 7.6-.4 0-.6.1-1 .1h-.1v-.1zm19.4 7.8h-.9v-.1c-.2-2-.8-4.2-1.6-6.4l-.1-.2h.2c.3 0 .6.1.9.1h.1v.1c.7 2.2 1.3 4.5 1.5 6.4v.1h-.1z"/><path class="st2" d="M-154.2 198c-.2-.5-.3-1-.5-1.5v-.1h-.1c-.3-.1-.6-.1-.9-.1h-.2l.1.2c.2.5.3 1 .5 1.5.5-.1.8-.1 1.1 0z"/><path class="st4" d="M-174.1 202.7c.2-1.9.8-4.2 1.5-6.4v-.1h.1c.3 0 .6-.1.9-.1h.2l-.1.2c-.8 2.2-1.3 4.5-1.6 6.4v.1h-1v-.1z"/><path class="st2" d="M-172.5 196.3c-.3.6-.4 1.1-.6 1.6.5-.1.7-.1 1.1-.1.2-.5.3-1 .5-1.5l.1-.2h-.2c-.3.1-.6.2-.9.2z"/><path class="st4" d="M-163.7 215.9c-1.5 0-3-.3-4.4-.9-1.4-.6-2.6-1.4-3.6-2.5s-1.8-2.3-2.4-3.7c-.6-1.4-.8-3-.8-4.6v-.1h1.1v.1c-.1 1.5.2 2.8.7 4.2.5 1.3 1.2 2.4 2.1 3.4.9 1 2.1 1.8 3.3 2.3 1.3.6 2.6.8 4 .8s2.8-.3 4-.8c1.2-.5 2.4-1.3 3.3-2.3.9-1 1.7-2.1 2.1-3.4.5-1.3.7-2.7.7-4.2v-.1h1.1v.1c.1 1.6-.2 3.1-.8 4.6-.5 1.4-1.3 2.6-2.4 3.7-1 1.1-2.3 1.9-3.6 2.5-1.3.5-2.8.9-4.4.9z"/><path class="st2" d="M-173.8 205.5v-1.4h-1.1v1.4h1.1zm21.3-1.4h-1v1.4h1v-1.4z"/><path class="st2" d="M-151.9 205c-2.3 0-4.4-.6-6.4-1.1-1-.3-1.9-.8-2.6-1.1v-.1c-1.7-.8-1.8-2.6-1.7-4.1 0-.4-.1-.9-.5-1.2-.2-.1-.4-.2-.6-.2-.2 0-.5.1-.6.2-.4.3-.5.8-.5 1.2.2 1.5.1 3.2-1.7 4-.7.3-1.6 1-2.6 1.3-2 .5-4.1 1.1-6.4 1.1-.9 0-1.7-.9-1.9-1.8-.3-1.3-.8-3.4-.8-5.2 0-.7.4-1.5 1.1-1.8 2.4-1.1 7.3-1.5 9.4-1.5.8 0 1.4.3 1.9.8.7-.3 1.4-.5 2.1-.5.7 0 1.4.2 2.1.5.4-.4 1-.8 1.9-.8 1.2 0 6.6.2 9.4 1.4.7.3 1.1 1 1.1 1.7-.1 1.8-.5 4.1-.8 5.4-.2.9-1 1.8-1.9 1.8zm-7.5-8.7c-1 0-1.2.9-1.3 1-.1.5-.2 1.3-.3 2.2 0 .8.3 1.4.9 1.7 2.2 1 4.8 1.5 7.8 1.5.2 0 .4-.2.5-.4.3-1.1.7-2.8.7-4.4 0-.1-.1-.3-.2-.3-1.9-1-6.4-1.3-8.1-1.3zm-16.8 1.3c-.1.1-.2.2-.2.3 0 1.6.4 3.3.7 4.4.1.2.3.4.5.4 3.1 0 5.6-.5 7.8-1.5.6-.3.9-.9.9-1.7 0-.7-.1-1.4-.3-2.2 0-.2-.2-1-1.3-1-.8 0-5.7.2-8.1 1.3z"/></svg>